<?xml version="1.0" encoding="UTF-8" standalone="no"?>
<svg width="800" height="450" viewBox="0 0 800 450" fill="none" xmlns="http://www.w3.org/2000/svg">
  <!-- Background -->
  <rect width="800" height="450" fill="#1E293B"/>
  
  <!-- Sky -->
  <rect width="800" height="300" fill="#4A90E2"/>
  
  <!-- Clouds -->
  <ellipse cx="100" cy="100" rx="50" ry="30" fill="white" fill-opacity="0.8"/>
  <ellipse cx="130" cy="90" rx="40" ry="25" fill="white" fill-opacity="0.8"/>
  <ellipse cx="160" cy="110" rx="45" ry="20" fill="white" fill-opacity="0.8"/>
  
  <ellipse cx="500" cy="80" rx="60" ry="35" fill="white" fill-opacity="0.8"/>
  <ellipse cx="540" cy="70" rx="50" ry="30" fill="white" fill-opacity="0.8"/>
  <ellipse cx="580" cy="90" rx="55" ry="25" fill="white" fill-opacity="0.8"/>
  
  <!-- Floating Island -->
  <ellipse cx="400" cy="350" rx="150" ry="50" fill="#50C878"/>
  <rect x="250" y="350" width="300" height="50" fill="#8B4513"/>
  
  <!-- Trees -->
  <path d="M320 300 L320 350 M320 300 L300 320 M320 300 L340 320" stroke="#006400" stroke-width="5"/>
  <circle cx="320" cy="280" r="30" fill="#006400"/>
  
  <path d="M480 290 L480 350 M480 290 L460 310 M480 290 L500 310" stroke="#006400" stroke-width="5"/>
  <circle cx="480" cy="270" r="35" fill="#006400"/>
  
  <!-- Character -->
  <rect x="380" y="300" width="40" height="50" fill="#4A90E2"/>
  <circle cx="400" cy="285" r="20" fill="#FFD700"/>
  <rect x="390" y="350" width="10" height="20" fill="#8B4513"/>
  <rect x="410" y="350" width="10" height="20" fill="#8B4513"/>
  
  <!-- UI Elements -->
  <rect x="50" y="50" width="200" height="50" rx="10" fill="#1E293B" fill-opacity="0.7"/>
  <text x="150" y="85" font-family="monospace" font-size="24" fill="#FFD700" text-anchor="middle">QUESTCHAIN</text>
  
  <rect x="600" y="50" width="150" height="40" rx="10" fill="#1E293B" fill-opacity="0.7"/>
  <text x="675" y="75" font-family="monospace" font-size="18" fill="white" text-anchor="middle">LEVEL 5</text>
  
  <rect x="50" y="380" width="150" height="40" rx="10" fill="#1E293B" fill-opacity="0.7"/>
  <text x="125" y="405" font-family="monospace" font-size="18" fill="white" text-anchor="middle">QUEST BOARD</text>
  
  <rect x="600" y="380" width="150" height="40" rx="10" fill="#1E293B" fill-opacity="0.7"/>
  <text x="675" y="405" font-family="monospace" font-size="18" fill="white" text-anchor="middle">WORLD MAP</text>
</svg>
